
<svg height="50" version="1.1" width="100" xmlns="http://www.w3.org/2000/svg"><desc>Created with Snap</desc><defs/><svg id="Layer_2" data-name="Layer 2" xmlns="http://www.w3.org/2000/svg" width="90" height="90" xmlns:xlink="http://www.w3.org/1999/xlink" viewBox="0 120 409.73 142.89" x="5" y="5">
  <defs>
    <style>
      .cls-1 {
        fill: #fff;
        opacity: .5;
      }

      .cls-2 {
        fill: url(#linear-gradient);
      }

      .cls-3 {
        fill: #fff;
      }
    </style>
    <linearGradient id="linear-gradient" x1="0" y1="142.89" x2="142.89" y2="0" gradientUnits="userSpaceOnUse">
      <stop offset="0" stop-color="#00568f"/>
      <stop offset=".5" stop-color="#4b8a34"/>
      <stop offset="1" stop-color="#cfe09b"/>
    </linearGradient>
  </defs>
  <g>
    <path class="cls-3" d="m166.07,80.19h15.22c.07,5.28,2.19,5.69,6.58,5.69h18.65c3.22,0,6.51-.34,6.51-4.18,0-4.32-1.78-4.59-21.39-4.59-22.9,0-25.5-2.74-25.5-14.94,0-8.98.82-15.91,20.02-15.91h21.25c17.55,0,19.2,5.97,19.2,14.67v1.58h-15.22c0-3.63-.41-5.14-7.4-5.14h-16.86c-3.43,0-5.76,1.17-5.76,3.84,0,4.32,1.85,4.46,18.17,4.39,23.65-.07,29.14,1.37,29.14,15.84,0,13.37-4.52,15.56-24.75,15.56h-18.44c-13.85,0-19.4-2.6-19.4-13.37v-3.43Z"/>
    <path class="cls-3" d="m234.64,46.8h54.3v11.52h-39.08v7.95h37.02v10.28h-37.02v7.95h39.97v11.93h-55.19v-49.63Z"/>
    <path class="cls-3" d="m296.96,46.8h51.83v11.93h-36.61v9.25h34.89v11.52h-34.89v16.93h-15.22v-49.63Z"/>
    <path class="cls-3" d="m354.55,46.8h54.3v11.52h-39.08v7.95h37.02v10.28h-37.02v7.95h39.97v11.93h-55.19v-49.63Z"/>
  </g>
  <path class="cls-2" d="m142.89,0h-71.45C31.99,0,0,31.99,0,71.45h0v71.45h71.45c39.46,0,71.45-31.99,71.45-71.45h0V0Z"/>
  <g>
    <path class="cls-1" d="m111.95,30.94h-49.32c-27.24,0-49.32,22.08-49.32,49.32h0v49.32h49.32c27.24,0,49.32-22.08,49.32-49.32h0V30.94Z"/>
    <path class="cls-1" d="m56.18,57.15h0c-16.33,0-29.57,13.24-29.57,29.57h0v29.57h29.57c16.33,0,29.57-13.24,29.57-29.57h0v-29.57h-29.57Z"/>
  </g>
<desc>Created with Snap</desc></svg></svg>